<svg xmlns="http://www.w3.org/2000/svg"  viewBox="0 0 100 100" width="32px" height="32px"><path fill="#78a1d1" d="M88,32v51c0,2.21-1.79,4-4,4H55l-4.98-14H18c-2.21,0-4-1.79-4-4V18c0-2.21,1.79-4,4-4h28l4.75,14H84 C86.21,28,88,29.79,88,32z"/><path fill="#e3e2e3" d="M55,87h29c2.209,0,4-1.791,4-4V32c0-2.209-1.791-4-4-4H50l15,44L55,87z"/><path fill="#1f212b" d="M84,88H55c-0.423,0-0.8-0.267-0.942-0.665L49.314,74H18c-2.757,0-5-2.243-5-5V18 c0-2.757,2.243-5,5-5h28c0.428,0,0.809,0.273,0.947,0.679L51.467,27H84c2.757,0,5,2.243,5,5v51C89,85.757,86.757,88,84,88z M55.706,86H84c1.654,0,3-1.346,3-3V32c0-1.654-1.346-3-3-3H50.75c-0.428,0-0.809-0.273-0.947-0.679L45.283,15H18 c-1.654,0-3,1.346-3,3v51c0,1.654,1.346,3,3,3h32.02c0.423,0,0.8,0.267,0.942,0.665L55.706,86z"/><path fill="#1f212b" d="M40.74,45.76l-4.61-12.31c-0.07-0.19-0.27-0.29-0.46-0.29c-0.2,0-0.4,0.1-0.47,0.29l-4.61,12.31 c-0.06,0.16-0.04,0.33,0.06,0.46c0.09,0.14,0.24,0.22,0.41,0.22h9.22c0.16,0,0.31-0.08,0.41-0.22 C40.78,46.09,40.8,45.92,40.74,45.76z M31.78,45.44l3.89-10.38l3.88,10.38H31.78z M40.74,45.76l-4.61-12.31 c-0.07-0.19-0.27-0.29-0.46-0.29c-0.2,0-0.4,0.1-0.47,0.29l-4.61,12.31c-0.06,0.16-0.04,0.33,0.06,0.46 c0.09,0.14,0.24,0.22,0.41,0.22h9.22c0.16,0,0.31-0.08,0.41-0.22C40.78,46.09,40.8,45.92,40.74,45.76z M31.78,45.44l3.89-10.38 l3.88,10.38H31.78z M47.29,54.09l-9.54-23.63c-0.08-0.18-0.26-0.31-0.46-0.31h-3.24c-0.21,0-0.39,0.13-0.47,0.31l-9.54,23.63 c-0.06,0.15-0.04,0.32,0.05,0.46c0.09,0.14,0.25,0.22,0.42,0.22h3.38c0.21,0,0.39-0.13,0.47-0.32l2.04-5.39h10.5l2.08,5.39 c0.07,0.2,0.26,0.32,0.46,0.32h3.39c0.16,0,0.32-0.08,0.41-0.22C47.33,54.41,47.35,54.24,47.29,54.09z M43.79,53.77l-2.08-5.39 c-0.07-0.19-0.26-0.32-0.46-0.32h-11.2c-0.21,0-0.39,0.13-0.47,0.32l-2.04,5.39h-2.29l9.13-22.62h2.57l9.14,22.62H43.79z M35.67,33.16c-0.2,0-0.4,0.1-0.47,0.29l-4.61,12.31c-0.06,0.16-0.04,0.33,0.06,0.46c0.09,0.14,0.24,0.22,0.41,0.22h9.22 c0.16,0,0.31-0.08,0.41-0.22c0.09-0.13,0.11-0.3,0.05-0.46l-4.61-12.31C36.06,33.26,35.86,33.16,35.67,33.16z M31.78,45.44 l3.89-10.38l3.88,10.38H31.78z"/><path fill="#e3e2e3" d="M36.95,31.15h-2.57l-9.13,22.62h2.29l2.04-5.39c0.08-0.19,0.26-0.32,0.47-0.32h11.2 c0.2,0,0.39,0.13,0.46,0.32l2.08,5.39h2.3L36.95,31.15z M40.69,46.22c-0.1,0.14-0.25,0.22-0.41,0.22h-9.22 c-0.17,0-0.32-0.08-0.41-0.22c-0.1-0.13-0.12-0.3-0.06-0.46l4.61-12.31c0.07-0.19,0.27-0.29,0.47-0.29c0.19,0,0.39,0.1,0.46,0.29 l4.61,12.31C40.8,45.92,40.78,46.09,40.69,46.22z"/><path fill="#9898ad" d="M77.15,47.5c-1.72,4.74-4.51,9.67-6.87,12.52c2.25,2.46,5.23,5.29,9.13,8.29l-1.82,2.38 c-3.94-3.03-7-5.89-9.34-8.42c-1.72,1.75-3.41,3.11-4.86,4.12l-1.03-2.99c1.19-0.89,2.52-2.02,3.89-3.42 c-3.88-4.66-5.08-7.74-5.15-7.95l2.8-1.06c0.02,0.04,1.06,2.66,4.37,6.73c2.14-2.64,4.18-6.01,5.65-10.2H56.88l-1.04-3H67v-3h3v3 h12v3H77.15z"/><path fill="#1f212b" d="M77.59,71.189c-0.11,0-0.217-0.036-0.305-0.104c-3.431-2.638-6.472-5.359-9.047-8.097 c-1.435,1.419-2.967,2.699-4.562,3.812c-0.128,0.09-0.292,0.115-0.441,0.065c-0.149-0.049-0.267-0.164-0.318-0.312l-1.03-2.99 C61.816,63.357,61.886,63.13,62.06,63c1.211-0.906,2.392-1.931,3.516-3.05c-3.88-4.743-4.941-7.732-4.951-7.762 c-0.084-0.255,0.047-0.531,0.297-0.626l2.8-1.061c0.24-0.087,0.51,0.015,0.625,0.244c0.206,0.483,1.237,2.762,3.921,6.153 c2.063-2.649,3.722-5.638,4.939-8.899H56.88c-0.213,0-0.403-0.135-0.473-0.336l-1.04-3c-0.053-0.153-0.029-0.322,0.065-0.454 S55.678,44,55.84,44H66.5v-2.5c0-0.276,0.224-0.5,0.5-0.5h3c0.276,0,0.5,0.224,0.5,0.5V44H82c0.276,0,0.5,0.224,0.5,0.5v3 c0,0.276-0.224,0.5-0.5,0.5h-4.501c-1.6,4.293-4.181,9.013-6.558,11.999c2.512,2.706,5.462,5.367,8.774,7.915 c0.219,0.168,0.26,0.481,0.092,0.7l-1.82,2.379c-0.081,0.105-0.2,0.175-0.332,0.192C77.633,71.188,77.612,71.189,77.59,71.189z M68.25,61.77c0.002,0,0.005,0,0.008,0c0.137,0.002,0.267,0.061,0.359,0.16c2.513,2.719,5.5,5.427,8.881,8.057l1.213-1.585 c-3.327-2.59-6.285-5.295-8.8-8.045c-0.168-0.184-0.175-0.464-0.016-0.656c2.445-2.951,5.171-7.923,6.785-12.371 C76.751,47.132,76.939,47,77.15,47h4.35v-2H70c-0.276,0-0.5-0.224-0.5-0.5V42h-2v2.5c0,0.276-0.224,0.5-0.5,0.5H56.542l0.693,2 H73.92c0.162,0,0.314,0.078,0.408,0.211c0.094,0.132,0.118,0.302,0.064,0.454c-1.345,3.835-3.274,7.316-5.733,10.35 c-0.095,0.117-0.237,0.186-0.388,0.186h0c-0.15,0-0.293-0.067-0.388-0.185c-2.543-3.127-3.781-5.442-4.244-6.412l-1.877,0.711 c0.454,1.007,1.813,3.671,4.874,7.346c0.164,0.197,0.152,0.487-0.027,0.67c-1.165,1.189-2.394,2.281-3.657,3.25l0.694,2.015 c1.487-1.083,2.914-2.317,4.249-3.676C67.987,61.823,68.116,61.77,68.25,61.77z"/><polygon fill="#6475a5" points="55,87 65.5,72.5 49.5,72.5"/><path fill="#1f212b" d="M65.5,73c-0.208,0-0.401-0.13-0.473-0.337l-12.01-34.82c-0.09-0.262,0.049-0.546,0.31-0.636 c0.26-0.091,0.546,0.049,0.636,0.31l12.01,34.82c0.09,0.261-0.048,0.546-0.31,0.636C65.609,72.991,65.554,73,65.5,73z"/><path fill="#1f212b" d="M52.135,34.242c-0.208,0-0.401-0.13-0.473-0.337l-6.635-19.242c-0.09-0.261,0.049-0.546,0.31-0.636 c0.262-0.091,0.546,0.048,0.636,0.31l6.635,19.242c0.09,0.261-0.049,0.546-0.31,0.636C52.244,34.233,52.189,34.242,52.135,34.242z"/><g><path fill="#1f212b" d="M55,87.5c-0.022,0-0.044-0.001-0.066-0.004c-0.182-0.024-0.336-0.146-0.401-0.318l-5.5-14.5 c-0.059-0.154-0.038-0.326,0.056-0.462C49.182,72.081,49.335,72,49.5,72h16c0.188,0,0.36,0.105,0.445,0.272 c0.085,0.168,0.07,0.368-0.041,0.521l-3.696,5.104c-0.162,0.225-0.474,0.271-0.698,0.112c-0.224-0.162-0.273-0.475-0.111-0.698 L64.521,73H50.225l4.914,12.956l3.552-4.904c0.162-0.226,0.473-0.273,0.698-0.112c0.224,0.162,0.273,0.475,0.111,0.698 l-4.095,5.655C55.31,87.424,55.159,87.5,55,87.5z"/></g></svg>